<svg xmlns="http://www.w3.org/2000/svg" xmlns:xlink="http://www.w3.org/1999/xlink" width="1024" zoomAndPan="magnify" viewBox="0 0 768 576" height="768" preserveAspectRatio="xMidYMid meet" version="1.0"><defs><g/><clipPath id="81b560208c"><path d="M 57.601562 158.144531 L 232.351562 158.144531 L 232.351562 388.394531 L 57.601562 388.394531 Z M 57.601562 158.144531 " clip-rule="nonzero"/></clipPath></defs><rect x="-76.8" width="921.6" fill="#ffffff" y="-57.6" height="691.2" fill-opacity="1"/><rect x="-76.8" width="921.6" fill="#ffffff" y="-57.6" height="691.2" fill-opacity="1"/><rect x="-76.8" width="921.6" fill="#ffffff" y="-57.6" height="691.2" fill-opacity="1"/><path fill="#008037" d="M 201.410156 233.074219 C 201.410156 231.226562 201.316406 229.378906 201.136719 227.535156 C 200.957031 225.695312 200.683594 223.867188 200.324219 222.050781 C 199.964844 220.234375 199.515625 218.441406 198.976562 216.671875 C 198.441406 214.898438 197.820312 213.160156 197.113281 211.449219 C 196.40625 209.738281 195.617188 208.066406 194.746094 206.4375 C 193.875 204.804688 192.925781 203.21875 191.898438 201.679688 C 190.871094 200.140625 189.769531 198.65625 188.597656 197.226562 C 187.425781 195.792969 186.1875 194.425781 184.878906 193.117188 C 183.574219 191.808594 182.203125 190.566406 180.777344 189.390625 C 179.347656 188.21875 177.863281 187.117188 176.328125 186.085938 C 174.789062 185.058594 173.207031 184.109375 171.578125 183.234375 C 169.949219 182.363281 168.277344 181.574219 166.570312 180.863281 C 164.863281 180.15625 163.125 179.535156 161.355469 178.996094 C 159.589844 178.460938 157.796875 178.011719 155.984375 177.648438 C 154.171875 177.289062 152.347656 177.015625 150.507812 176.835938 C 148.667969 176.652344 146.824219 176.5625 144.976562 176.5625 C 143.125 176.5625 141.28125 176.652344 139.445312 176.835938 C 137.605469 177.015625 135.777344 177.289062 133.964844 177.648438 C 132.152344 178.011719 130.363281 178.460938 128.59375 178.996094 C 126.824219 179.535156 125.085938 180.15625 123.378906 180.863281 C 121.671875 181.574219 120.003906 182.363281 118.371094 183.234375 C 116.742188 184.109375 115.160156 185.058594 113.621094 186.085938 C 112.085938 187.117188 110.601562 188.21875 109.175781 189.390625 C 107.746094 190.566406 106.378906 191.808594 105.070312 193.117188 C 103.761719 194.425781 102.523438 195.792969 101.351562 197.226562 C 100.179688 198.65625 99.078125 200.140625 98.050781 201.679688 C 97.023438 203.21875 96.078125 204.804688 95.203125 206.4375 C 94.332031 208.066406 93.542969 209.738281 92.835938 211.449219 C 92.128906 213.160156 91.507812 214.898438 90.972656 216.671875 C 90.433594 218.441406 89.988281 220.234375 89.625 222.050781 C 89.265625 223.867188 88.996094 225.695312 88.8125 227.535156 C 88.632812 229.378906 88.542969 231.226562 88.542969 233.074219 C 88.542969 234.925781 88.632812 236.773438 88.8125 238.613281 C 88.996094 240.457031 89.265625 242.285156 89.625 244.101562 C 89.988281 245.917969 90.433594 247.710938 90.972656 249.480469 C 91.507812 251.25 92.128906 252.992188 92.835938 254.703125 C 93.542969 256.414062 94.332031 258.082031 95.203125 259.714844 C 96.078125 261.347656 97.023438 262.933594 98.050781 264.472656 C 99.078125 266.011719 100.179688 267.496094 101.351562 268.925781 C 102.523438 270.359375 103.761719 271.726562 105.070312 273.035156 C 106.378906 274.34375 107.746094 275.585938 109.175781 276.761719 C 110.601562 277.933594 112.085938 279.035156 113.621094 280.0625 C 115.160156 281.09375 116.742188 282.042969 118.371094 282.914062 C 120.003906 283.789062 121.671875 284.578125 123.378906 285.285156 C 125.085938 285.996094 126.824219 286.617188 128.59375 287.15625 C 130.363281 287.691406 132.152344 288.140625 133.964844 288.503906 C 135.777344 288.863281 137.605469 289.136719 139.445312 289.316406 C 141.28125 289.496094 143.125 289.589844 144.976562 289.589844 C 146.824219 289.585938 148.664062 289.492188 150.503906 289.308594 C 152.34375 289.128906 154.167969 288.855469 155.980469 288.492188 C 157.792969 288.128906 159.582031 287.679688 161.347656 287.140625 C 163.117188 286.601562 164.855469 285.980469 166.5625 285.269531 C 168.269531 284.558594 169.9375 283.769531 171.566406 282.898438 C 173.195312 282.023438 174.777344 281.074219 176.3125 280.042969 C 177.847656 279.015625 179.332031 277.914062 180.757812 276.742188 C 182.1875 275.566406 183.554688 274.324219 184.859375 273.015625 C 186.167969 271.710938 187.40625 270.339844 188.578125 268.910156 C 189.75 267.480469 190.851562 265.996094 191.878906 264.457031 C 192.90625 262.917969 193.855469 261.335938 194.726562 259.703125 C 195.597656 258.070312 196.386719 256.402344 197.09375 254.691406 C 197.804688 252.984375 198.425781 251.242188 198.964844 249.472656 C 199.5 247.703125 199.953125 245.910156 200.3125 244.097656 C 200.675781 242.28125 200.949219 240.453125 201.132812 238.613281 C 201.3125 236.773438 201.40625 234.925781 201.410156 233.074219 Z M 97.738281 233.074219 C 97.738281 231.527344 97.8125 229.980469 97.964844 228.4375 C 98.117188 226.898438 98.34375 225.367188 98.644531 223.847656 C 98.949219 222.328125 99.324219 220.828125 99.773438 219.34375 C 100.222656 217.863281 100.742188 216.40625 101.335938 214.972656 C 101.925781 213.542969 102.585938 212.144531 103.316406 210.777344 C 104.046875 209.410156 104.839844 208.085938 105.699219 206.796875 C 106.558594 205.507812 107.480469 204.265625 108.460938 203.066406 C 109.441406 201.871094 110.480469 200.722656 111.574219 199.628906 C 112.667969 198.53125 113.8125 197.492188 115.007812 196.511719 C 116.203125 195.527344 117.445312 194.605469 118.730469 193.746094 C 120.019531 192.882812 121.34375 192.089844 122.707031 191.359375 C 124.074219 190.628906 125.46875 189.96875 126.898438 189.375 C 128.328125 188.78125 129.78125 188.261719 131.261719 187.808594 C 132.742188 187.359375 134.242188 186.984375 135.757812 186.683594 C 137.277344 186.378906 138.804688 186.152344 140.34375 186 C 141.882812 185.847656 143.429688 185.773438 144.976562 185.773438 C 146.523438 185.773438 148.066406 185.847656 149.605469 186 C 151.144531 186.152344 152.671875 186.378906 154.191406 186.683594 C 155.707031 186.984375 157.207031 187.359375 158.6875 187.808594 C 160.167969 188.261719 161.621094 188.78125 163.050781 189.375 C 164.480469 189.96875 165.878906 190.628906 167.242188 191.359375 C 168.605469 192.089844 169.933594 192.882812 171.21875 193.746094 C 172.503906 194.605469 173.746094 195.527344 174.941406 196.511719 C 176.136719 197.492188 177.28125 198.53125 178.375 199.628906 C 179.46875 200.722656 180.507812 201.871094 181.488281 203.066406 C 182.46875 204.265625 183.390625 205.507812 184.25 206.796875 C 185.109375 208.085938 185.90625 209.410156 186.632812 210.777344 C 187.363281 212.144531 188.023438 213.542969 188.617188 214.972656 C 189.207031 216.40625 189.726562 217.863281 190.175781 219.34375 C 190.625 220.828125 191.003906 222.328125 191.304688 223.847656 C 191.605469 225.367188 191.832031 226.898438 191.984375 228.4375 C 192.136719 229.980469 192.210938 231.527344 192.210938 233.074219 C 192.210938 234.625 192.136719 236.171875 191.984375 237.710938 C 191.832031 239.253906 191.605469 240.785156 191.304688 242.304688 C 191 243.824219 190.625 245.324219 190.175781 246.808594 C 189.726562 248.289062 189.207031 249.746094 188.617188 251.179688 C 188.023438 252.609375 187.363281 254.007812 186.632812 255.375 C 185.90625 256.742188 185.109375 258.066406 184.25 259.355469 C 183.390625 260.644531 182.46875 261.886719 181.488281 263.085938 C 180.507812 264.28125 179.46875 265.429688 178.375 266.523438 C 177.28125 267.621094 176.136719 268.660156 174.941406 269.640625 C 173.746094 270.625 172.503906 271.546875 171.21875 272.40625 C 169.933594 273.265625 168.605469 274.0625 167.242188 274.792969 C 165.878906 275.523438 164.480469 276.183594 163.050781 276.777344 C 161.621094 277.371094 160.167969 277.890625 158.6875 278.339844 C 157.207031 278.792969 155.707031 279.167969 154.191406 279.46875 C 152.671875 279.773438 151.144531 280 149.605469 280.152344 C 148.066406 280.300781 146.523438 280.378906 144.976562 280.378906 C 143.429688 280.375 141.886719 280.300781 140.347656 280.144531 C 138.808594 279.992188 137.28125 279.765625 135.761719 279.460938 C 134.246094 279.15625 132.75 278.78125 131.269531 278.328125 C 129.789062 277.878906 128.335938 277.355469 126.90625 276.761719 C 125.476562 276.167969 124.082031 275.507812 122.71875 274.777344 C 121.355469 274.046875 120.03125 273.25 118.746094 272.390625 C 117.460938 271.527344 116.21875 270.605469 115.023438 269.625 C 113.828125 268.640625 112.683594 267.601562 111.589844 266.507812 C 110.496094 265.414062 109.457031 264.265625 108.476562 263.070312 C 107.496094 261.871094 106.574219 260.628906 105.714844 259.34375 C 104.855469 258.054688 104.0625 256.730469 103.332031 255.363281 C 102.601562 253.996094 101.941406 252.601562 101.347656 251.167969 C 100.757812 249.738281 100.234375 248.28125 99.785156 246.800781 C 99.335938 245.320312 98.957031 243.820312 98.65625 242.300781 C 98.351562 240.78125 98.125 239.25 97.972656 237.710938 C 97.816406 236.167969 97.742188 234.625 97.738281 233.074219 Z M 97.738281 233.074219 " fill-opacity="1" fill-rule="nonzero"/><g clip-path="url(#81b560208c)"><path fill="#008037" d="M 181.351562 326.769531 C 200.039062 304.160156 219.839844 271.234375 219.839844 233.113281 C 219.839844 231.886719 219.808594 230.660156 219.75 229.433594 C 219.6875 228.207031 219.597656 226.984375 219.480469 225.765625 C 219.359375 224.542969 219.210938 223.324219 219.027344 222.113281 C 218.847656 220.898438 218.640625 219.691406 218.402344 218.488281 C 218.160156 217.285156 217.894531 216.085938 217.597656 214.898438 C 217.296875 213.707031 216.972656 212.523438 216.617188 211.351562 C 216.261719 210.175781 215.875 209.011719 215.464844 207.855469 C 215.050781 206.699219 214.609375 205.558594 214.140625 204.421875 C 213.671875 203.289062 213.175781 202.167969 212.652344 201.058594 C 212.128906 199.949219 211.578125 198.855469 211 197.773438 C 210.421875 196.691406 209.816406 195.625 209.1875 194.570312 C 208.558594 193.519531 207.902344 192.480469 207.222656 191.460938 C 206.542969 190.441406 205.835938 189.4375 205.105469 188.453125 C 204.375 187.46875 203.625 186.5 202.847656 185.550781 C 202.070312 184.605469 201.269531 183.675781 200.445312 182.765625 C 199.625 181.855469 198.777344 180.96875 197.914062 180.101562 C 197.046875 179.234375 196.160156 178.386719 195.25 177.5625 C 194.34375 176.738281 193.414062 175.9375 192.46875 175.160156 C 191.519531 174.382812 190.554688 173.628906 189.570312 172.898438 C 188.585938 172.164062 187.585938 171.460938 186.566406 170.777344 C 185.546875 170.097656 184.515625 169.441406 183.464844 168.808594 C 182.414062 168.179688 181.347656 167.574219 180.265625 166.996094 C 179.183594 166.417969 178.089844 165.867188 176.984375 165.339844 C 175.875 164.816406 174.757812 164.320312 173.625 163.851562 C 172.492188 163.378906 171.351562 162.9375 170.195312 162.527344 C 169.042969 162.113281 167.878906 161.726562 166.707031 161.371094 C 165.535156 161.015625 164.355469 160.6875 163.164062 160.390625 C 161.976562 160.09375 160.78125 159.824219 159.582031 159.582031 C 158.378906 159.34375 157.171875 159.136719 155.960938 158.953125 C 154.746094 158.773438 153.53125 158.625 152.3125 158.503906 C 151.09375 158.382812 149.871094 158.292969 148.648438 158.234375 C 147.425781 158.171875 146.199219 158.144531 144.976562 158.144531 C 143.75 158.144531 142.523438 158.171875 141.300781 158.234375 C 140.078125 158.292969 138.855469 158.382812 137.636719 158.503906 C 136.417969 158.625 135.203125 158.773438 133.988281 158.953125 C 132.777344 159.136719 131.570312 159.34375 130.371094 159.582031 C 129.167969 159.824219 127.972656 160.09375 126.785156 160.390625 C 125.597656 160.6875 124.414062 161.015625 123.242188 161.371094 C 122.070312 161.726562 120.90625 162.113281 119.753906 162.527344 C 118.601562 162.9375 117.457031 163.378906 116.324219 163.851562 C 115.195312 164.320312 114.074219 164.816406 112.964844 165.339844 C 111.859375 165.867188 110.765625 166.417969 109.683594 166.996094 C 108.605469 167.574219 107.539062 168.179688 106.488281 168.808594 C 105.4375 169.441406 104.402344 170.097656 103.382812 170.777344 C 102.363281 171.460938 101.363281 172.164062 100.378906 172.898438 C 99.394531 173.628906 98.429688 174.382812 97.480469 175.160156 C 96.535156 175.9375 95.605469 176.738281 94.699219 177.5625 C 93.792969 178.386719 92.902344 179.234375 92.039062 180.101562 C 91.171875 180.96875 90.328125 181.855469 89.503906 182.765625 C 88.679688 183.675781 87.882812 184.605469 87.105469 185.550781 C 86.328125 186.5 85.574219 187.46875 84.84375 188.453125 C 84.113281 189.4375 83.40625 190.441406 82.726562 191.460938 C 82.046875 192.480469 81.390625 193.519531 80.761719 194.570312 C 80.132812 195.625 79.527344 196.691406 78.949219 197.773438 C 78.371094 198.855469 77.820312 199.949219 77.296875 201.058594 C 76.773438 202.167969 76.277344 203.289062 75.808594 204.421875 C 75.339844 205.558594 74.898438 206.699219 74.488281 207.855469 C 74.074219 209.011719 73.691406 210.175781 73.335938 211.351562 C 72.976562 212.523438 72.652344 213.707031 72.355469 214.898438 C 72.054688 216.085938 71.789062 217.285156 71.550781 218.488281 C 71.308594 219.691406 71.101562 220.898438 70.921875 222.113281 C 70.742188 223.324219 70.589844 224.542969 70.472656 225.765625 C 70.351562 226.984375 70.261719 228.207031 70.199219 229.433594 C 70.140625 230.660156 70.109375 231.886719 70.109375 233.113281 C 70.109375 271.222656 89.902344 304.148438 108.601562 326.769531 C 82.609375 330.886719 57.601562 340.34375 57.601562 356.160156 C 57.601562 377.09375 102.621094 388.394531 144.976562 388.394531 C 187.328125 388.394531 232.347656 377.09375 232.347656 356.160156 C 232.347656 340.34375 207.339844 330.886719 181.351562 326.769531 Z M 144.976562 167.351562 C 146.050781 167.355469 147.125 167.382812 148.195312 167.4375 C 149.269531 167.488281 150.339844 167.570312 151.410156 167.675781 C 152.476562 167.78125 153.542969 167.914062 154.605469 168.074219 C 155.667969 168.234375 156.726562 168.417969 157.78125 168.628906 C 158.835938 168.839844 159.882812 169.078125 160.925781 169.339844 C 161.964844 169.601562 163 169.886719 164.027344 170.203125 C 165.058594 170.515625 166.078125 170.851562 167.085938 171.214844 C 168.097656 171.578125 169.101562 171.964844 170.09375 172.378906 C 171.085938 172.789062 172.066406 173.226562 173.039062 173.6875 C 174.007812 174.148438 174.96875 174.632812 175.914062 175.140625 C 176.863281 175.648438 177.796875 176.179688 178.71875 176.730469 C 179.640625 177.285156 180.546875 177.859375 181.441406 178.457031 C 182.332031 179.054688 183.210938 179.675781 184.074219 180.316406 C 184.9375 180.957031 185.785156 181.621094 186.613281 182.300781 C 187.445312 182.984375 188.257812 183.6875 189.054688 184.410156 C 189.851562 185.132812 190.628906 185.875 191.386719 186.636719 C 192.148438 187.394531 192.886719 188.175781 193.609375 188.972656 C 194.332031 189.769531 195.03125 190.582031 195.714844 191.414062 C 196.394531 192.246094 197.058594 193.09375 197.695312 193.957031 C 198.335938 194.824219 198.957031 195.703125 199.554688 196.597656 C 200.148438 197.492188 200.726562 198.398438 201.277344 199.320312 C 201.832031 200.246094 202.359375 201.179688 202.867188 202.128906 C 203.375 203.078125 203.855469 204.039062 204.316406 205.011719 C 204.777344 205.980469 205.210938 206.964844 205.625 207.960938 C 206.035156 208.953125 206.421875 209.957031 206.785156 210.96875 C 207.148438 211.980469 207.484375 213.003906 207.796875 214.03125 C 208.109375 215.0625 208.398438 216.097656 208.660156 217.140625 C 208.921875 218.183594 209.15625 219.234375 209.367188 220.289062 C 209.578125 221.34375 209.761719 222.402344 209.921875 223.46875 C 210.082031 224.53125 210.214844 225.597656 210.320312 226.667969 C 210.425781 227.738281 210.507812 228.8125 210.558594 229.886719 C 210.613281 230.960938 210.640625 232.035156 210.640625 233.113281 C 210.640625 272.117188 187.972656 305.761719 168.960938 327.109375 C 161.527344 335.410156 153.53125 343.128906 144.976562 350.265625 C 136.421875 343.132812 128.429688 335.417969 121 327.121094 C 101.976562 305.761719 79.308594 272.117188 79.308594 233.113281 C 79.308594 232.035156 79.335938 230.960938 79.390625 229.886719 C 79.445312 228.8125 79.523438 227.738281 79.628906 226.667969 C 79.738281 225.597656 79.871094 224.53125 80.027344 223.46875 C 80.1875 222.402344 80.371094 221.34375 80.582031 220.289062 C 80.792969 219.234375 81.027344 218.183594 81.289062 217.140625 C 81.550781 216.097656 81.839844 215.0625 82.152344 214.03125 C 82.464844 213.003906 82.800781 211.980469 83.164062 210.96875 C 83.527344 209.957031 83.914062 208.953125 84.324219 207.960938 C 84.738281 206.964844 85.171875 205.980469 85.632812 205.011719 C 86.09375 204.039062 86.578125 203.078125 87.082031 202.128906 C 87.589844 201.179688 88.121094 200.246094 88.671875 199.320312 C 89.226562 198.398438 89.800781 197.492188 90.398438 196.597656 C 90.996094 195.703125 91.613281 194.824219 92.253906 193.957031 C 92.894531 193.09375 93.554688 192.246094 94.234375 191.414062 C 94.917969 190.582031 95.621094 189.769531 96.339844 188.972656 C 97.0625 188.175781 97.804688 187.394531 98.5625 186.636719 C 99.324219 185.875 100.101562 185.132812 100.894531 184.410156 C 101.691406 183.6875 102.503906 182.984375 103.335938 182.300781 C 104.167969 181.621094 105.011719 180.957031 105.875 180.316406 C 106.738281 179.675781 107.617188 179.054688 108.507812 178.457031 C 109.402344 177.859375 110.308594 177.285156 111.230469 176.730469 C 112.152344 176.179688 113.085938 175.648438 114.035156 175.140625 C 114.980469 174.632812 115.941406 174.148438 116.910156 173.6875 C 117.882812 173.226562 118.863281 172.789062 119.855469 172.378906 C 120.847656 171.964844 121.851562 171.578125 122.863281 171.214844 C 123.875 170.851562 124.894531 170.515625 125.921875 170.203125 C 126.949219 169.886719 127.984375 169.601562 129.027344 169.339844 C 130.066406 169.078125 131.117188 168.839844 132.167969 168.628906 C 133.222656 168.417969 134.28125 168.234375 135.34375 168.074219 C 136.40625 167.914062 137.472656 167.78125 138.539062 167.675781 C 139.609375 167.570312 140.679688 167.488281 141.753906 167.4375 C 142.828125 167.382812 143.902344 167.355469 144.976562 167.351562 Z M 144.976562 379.183594 C 96.542969 379.183594 66.800781 365.773438 66.800781 356.160156 C 66.800781 348.789062 84.035156 339.082031 115.839844 335.085938 C 123.949219 344.066406 132.742188 352.320312 142.214844 359.84375 C 142.613281 360.140625 143.050781 360.371094 143.519531 360.527344 C 143.992188 360.683594 144.476562 360.761719 144.976562 360.761719 C 145.472656 360.761719 145.957031 360.683594 146.429688 360.527344 C 146.902344 360.371094 147.335938 360.140625 147.734375 359.84375 C 157.203125 352.320312 165.992188 344.070312 174.101562 335.09375 C 205.914062 339.082031 223.152344 348.789062 223.152344 356.160156 C 223.152344 365.773438 193.40625 379.183594 144.976562 379.183594 Z M 144.976562 379.183594 " fill-opacity="1" fill-rule="nonzero"/></g><path fill="#008037" d="M 160.113281 254.757812 C 160.328125 254.96875 160.558594 255.160156 160.808594 255.328125 C 161.0625 255.496094 161.328125 255.640625 161.605469 255.753906 C 161.882812 255.871094 162.171875 255.957031 162.46875 256.019531 C 162.765625 256.078125 163.0625 256.105469 163.367188 256.105469 C 163.667969 256.105469 163.96875 256.078125 164.261719 256.019531 C 164.558594 255.960938 164.847656 255.871094 165.125 255.757812 C 165.40625 255.640625 165.671875 255.5 165.921875 255.332031 C 166.171875 255.164062 166.40625 254.972656 166.621094 254.757812 C 166.832031 254.546875 167.023438 254.3125 167.191406 254.0625 C 167.359375 253.8125 167.5 253.546875 167.617188 253.265625 C 167.734375 252.988281 167.820312 252.699219 167.878906 252.402344 C 167.9375 252.105469 167.96875 251.804688 167.96875 251.503906 C 167.96875 251.199219 167.941406 250.902344 167.882812 250.605469 C 167.824219 250.308594 167.734375 250.019531 167.621094 249.742188 C 167.503906 249.460938 167.363281 249.195312 167.195312 248.945312 C 167.027344 248.691406 166.839844 248.457031 166.625 248.246094 L 151.476562 233.074219 L 166.625 217.917969 C 166.839844 217.703125 167.03125 217.46875 167.195312 217.21875 C 167.363281 216.964844 167.507812 216.699219 167.621094 216.421875 C 167.738281 216.140625 167.824219 215.851562 167.882812 215.554688 C 167.941406 215.257812 167.972656 214.960938 167.972656 214.65625 C 167.972656 214.355469 167.941406 214.054688 167.882812 213.757812 C 167.824219 213.460938 167.734375 213.171875 167.621094 212.894531 C 167.503906 212.613281 167.363281 212.347656 167.195312 212.097656 C 167.027344 211.84375 166.835938 211.613281 166.621094 211.398438 C 166.40625 211.183594 166.175781 210.996094 165.921875 210.828125 C 165.671875 210.660156 165.40625 210.515625 165.128906 210.402344 C 164.847656 210.285156 164.5625 210.199219 164.265625 210.140625 C 163.96875 210.082031 163.667969 210.050781 163.367188 210.050781 C 163.0625 210.050781 162.765625 210.082031 162.46875 210.140625 C 162.171875 210.199219 161.882812 210.289062 161.605469 210.402344 C 161.328125 210.519531 161.0625 210.664062 160.808594 210.832031 C 160.558594 211 160.328125 211.191406 160.113281 211.40625 L 144.976562 226.5625 L 129.835938 211.40625 C 129.625 211.191406 129.390625 211 129.140625 210.832031 C 128.886719 210.664062 128.625 210.519531 128.34375 210.402344 C 128.066406 210.289062 127.777344 210.199219 127.480469 210.140625 C 127.183594 210.082031 126.886719 210.050781 126.582031 210.050781 C 126.28125 210.050781 125.980469 210.082031 125.6875 210.140625 C 125.390625 210.199219 125.101562 210.285156 124.820312 210.402344 C 124.542969 210.515625 124.277344 210.660156 124.027344 210.828125 C 123.773438 210.996094 123.542969 211.183594 123.328125 211.398438 C 123.113281 211.613281 122.921875 211.84375 122.753906 212.097656 C 122.585938 212.347656 122.445312 212.613281 122.328125 212.894531 C 122.214844 213.171875 122.125 213.460938 122.066406 213.757812 C 122.007812 214.054688 121.980469 214.355469 121.976562 214.65625 C 121.976562 214.960938 122.007812 215.257812 122.066406 215.554688 C 122.125 215.851562 122.210938 216.140625 122.328125 216.421875 C 122.445312 216.699219 122.585938 216.964844 122.753906 217.21875 C 122.921875 217.46875 123.113281 217.703125 123.324219 217.917969 L 138.472656 233.074219 L 123.324219 248.246094 C 123.113281 248.457031 122.921875 248.691406 122.753906 248.945312 C 122.585938 249.195312 122.445312 249.460938 122.328125 249.742188 C 122.214844 250.019531 122.128906 250.308594 122.066406 250.605469 C 122.007812 250.902344 121.980469 251.199219 121.980469 251.503906 C 121.980469 251.804688 122.011719 252.105469 122.070312 252.402344 C 122.128906 252.699219 122.214844 252.988281 122.332031 253.265625 C 122.449219 253.546875 122.589844 253.8125 122.757812 254.0625 C 122.925781 254.3125 123.117188 254.546875 123.332031 254.757812 C 123.542969 254.972656 123.777344 255.164062 124.027344 255.332031 C 124.28125 255.5 124.542969 255.640625 124.824219 255.757812 C 125.101562 255.871094 125.390625 255.960938 125.6875 256.019531 C 125.984375 256.078125 126.28125 256.105469 126.585938 256.105469 C 126.886719 256.105469 127.183594 256.078125 127.480469 256.019531 C 127.777344 255.957031 128.066406 255.871094 128.34375 255.753906 C 128.625 255.640625 128.886719 255.496094 129.140625 255.328125 C 129.390625 255.160156 129.621094 254.96875 129.835938 254.757812 L 144.976562 239.585938 Z M 160.113281 254.757812 " fill-opacity="1" fill-rule="nonzero"/><g fill="#008037" fill-opacity="1"><g transform="translate(297.334002, 259.093339)"><g><path d="M 13.789062 0.324219 C 29.789062 0.324219 29.789062 -23.640625 13.789062 -23.640625 C -2.210938 -23.640625 -2.210938 0.324219 13.789062 0.324219 Z M 13.789062 -4.488281 C 4.488281 -4.488281 4.488281 -18.863281 13.789062 -18.863281 C 23.089844 -18.863281 23.089844 -4.488281 13.789062 -4.488281 Z M 13.789062 -4.488281 "/></g></g></g><g fill="#008037" fill-opacity="1"><g transform="translate(324.877984, 259.093339)"><g><path d="M 7.253906 0 L 7.253906 -8.878906 L 11.738281 -8.878906 C 20.746094 -8.878906 20.78125 -23.21875 11.738281 -23.21875 L 2.601562 -23.21875 L 2.601562 0 Z M 7.253906 -13.398438 L 7.253906 -18.601562 L 11.347656 -18.601562 C 14.472656 -18.601562 14.472656 -13.398438 11.347656 -13.398438 Z M 7.253906 -13.398438 "/></g></g></g><g fill="#008037" fill-opacity="1"><g transform="translate(344.487217, 259.093339)"><g><path d="M 1.527344 -1.496094 C 4.683594 0.128906 7.578125 0.292969 8.878906 0.195312 C 13.234375 -0.03125 15.902344 -2.992188 15.902344 -6.863281 C 15.902344 -10.570312 12.78125 -12.648438 9.171875 -13.984375 C 7.835938 -14.4375 6.699219 -15.023438 6.570312 -16.324219 C 6.472656 -17.625 7.21875 -18.828125 8.878906 -18.925781 C 9.59375 -18.960938 11.058594 -18.992188 13.625 -17.949219 L 14.210938 -22.4375 C 11.21875 -23.480469 9.625 -23.480469 8.421875 -23.414062 C 4.554688 -23.21875 1.855469 -20.226562 1.855469 -16.324219 C 1.855469 -12.421875 5.105469 -10.570312 8.746094 -9.234375 C 10.046875 -8.78125 11.058594 -8.195312 11.15625 -6.863281 C 11.285156 -5.59375 10.113281 -4.617188 8.746094 -4.519531 C 7.675781 -4.421875 4.78125 -4.488281 2.113281 -6.375 Z M 1.527344 -1.496094 "/></g></g></g><g fill="#008037" fill-opacity="1"><g transform="translate(361.690009, 259.093339)"><g><path d="M 2.082031 -23.25 L 2.082031 -14.632812 C 2.308594 -12.097656 2.503906 -9.269531 2.765625 -6.960938 L 6.4375 -6.960938 C 6.699219 -9.269531 6.894531 -12.097656 7.089844 -14.632812 L 7.089844 -23.25 Z M 7.253906 -2.375 C 7.253906 -5.820312 1.917969 -5.820312 1.917969 -2.375 C 1.917969 1.074219 7.253906 1.074219 7.253906 -2.375 Z M 7.253906 -2.375 "/></g></g></g><g fill="#008037" fill-opacity="1"><g transform="translate(370.665381, 259.093339)"><g/></g></g><g fill="#008037" fill-opacity="1"><g transform="translate(379.900911, 259.093339)"><g><path d="M 7.253906 0 L 7.253906 -8.878906 L 11.738281 -8.878906 C 20.746094 -8.878906 20.78125 -23.21875 11.738281 -23.21875 L 2.601562 -23.21875 L 2.601562 0 Z M 7.253906 -13.398438 L 7.253906 -18.601562 L 11.347656 -18.601562 C 14.472656 -18.601562 14.472656 -13.398438 11.347656 -13.398438 Z M 7.253906 -13.398438 "/></g></g></g><g fill="#008037" fill-opacity="1"><g transform="translate(399.510144, 259.093339)"><g><path d="M 0.519531 0 L 5.789062 0 L 6.699219 -2.503906 L 14.40625 -2.503906 L 15.347656 0 L 20.585938 0 L 10.796875 -24.097656 L 10.308594 -24.097656 Z M 8.390625 -6.863281 L 10.570312 -12.910156 L 12.683594 -6.863281 Z M 8.390625 -6.863281 "/></g></g></g><g fill="#008037" fill-opacity="1"><g transform="translate(420.745354, 259.093339)"><g><path d="M 14.179688 0 L 19.445312 0 L 14.046875 -9.59375 C 20.878906 -11.578125 20.066406 -23.25 11.773438 -23.25 L 2.601562 -23.25 L 2.601562 0 L 7.253906 0 L 7.253906 -8.878906 L 9.496094 -8.878906 Z M 7.253906 -13.398438 L 7.253906 -18.601562 L 11.347656 -18.601562 C 14.503906 -18.601562 14.503906 -13.398438 11.347656 -13.398438 Z M 7.253906 -13.398438 "/></g></g></g><g fill="#008037" fill-opacity="1"><g transform="translate(440.679782, 259.093339)"><g><path d="M 14.632812 0 L 14.632812 -4.648438 L 7.253906 -4.648438 L 7.253906 -9.300781 L 13.367188 -9.300781 L 13.367188 -13.949219 L 7.253906 -13.949219 L 7.253906 -18.601562 L 14.242188 -18.601562 L 14.242188 -23.25 L 2.601562 -23.25 L 2.601562 0 Z M 14.632812 0 "/></g></g></g><g fill="#008037" fill-opacity="1"><g transform="translate(457.069586, 259.093339)"><g><path d="M 17.398438 -17.851562 L 17.949219 -22.632812 C 16.550781 -23.25 14.992188 -23.542969 13.367188 -23.542969 C -2.375 -23.542969 -2.40625 0.0664062 13.367188 0.0664062 C 14.992188 0.0664062 17.039062 -0.324219 18.472656 -0.910156 L 17.851562 -5.722656 C 16.976562 -5.269531 15.382812 -4.683594 13.367188 -4.683594 C 4.164062 -4.683594 4.164062 -18.863281 13.367188 -18.863281 C 15.382812 -18.863281 16.519531 -18.308594 17.398438 -17.851562 Z M 17.398438 -17.851562 "/></g></g></g><g fill="#008037" fill-opacity="1"><g transform="translate(476.646295, 259.093339)"><g><path d="M 14.632812 0 L 14.632812 -4.648438 L 7.253906 -4.648438 L 7.253906 -9.300781 L 13.367188 -9.300781 L 13.367188 -13.949219 L 7.253906 -13.949219 L 7.253906 -18.601562 L 14.242188 -18.601562 L 14.242188 -23.25 L 2.601562 -23.25 L 2.601562 0 Z M 14.632812 0 "/></g></g></g><g fill="#008037" fill-opacity="1"><g transform="translate(493.036111, 259.093339)"><g/></g></g><g fill="#008037" fill-opacity="1"><g transform="translate(502.27163, 259.093339)"><g><path d="M 19.25 -1.203125 L 20.390625 0.128906 L 25.527344 0.128906 L 22.472656 -3.773438 C 28.097656 -10.40625 25.105469 -23.382812 13.496094 -23.382812 C -2.113281 -23.382812 -2.113281 0.0664062 13.496094 0.0664062 C 15.773438 0.0664062 17.660156 -0.390625 19.25 -1.203125 Z M 12.226562 -9.855469 L 16.128906 -5.074219 C 15.382812 -4.78125 14.503906 -4.617188 13.496094 -4.617188 C 4.421875 -4.617188 4.421875 -18.667969 13.496094 -18.667969 C 19.804688 -18.667969 21.722656 -11.933594 19.347656 -7.773438 L 17.722656 -9.855469 Z M 12.226562 -9.855469 "/></g></g></g><g fill="#008037" fill-opacity="1"><g transform="translate(529.555442, 259.093339)"><g><path d="M 19.285156 -8.097656 L 19.285156 -23.25 L 14.667969 -23.25 L 14.667969 -8.128906 C 14.667969 -3.253906 7.121094 -3.253906 7.121094 -8.128906 L 7.121094 -23.25 L 2.472656 -23.25 L 2.472656 -8.097656 C 2.472656 2.960938 19.285156 2.960938 19.285156 -8.097656 Z M 19.285156 -8.097656 "/></g></g></g><g fill="#008037" fill-opacity="1"><g transform="translate(551.375982, 259.093339)"><g><path d="M 14.632812 0 L 14.632812 -4.648438 L 7.253906 -4.648438 L 7.253906 -9.300781 L 13.367188 -9.300781 L 13.367188 -13.949219 L 7.253906 -13.949219 L 7.253906 -18.601562 L 14.242188 -18.601562 L 14.242188 -23.25 L 2.601562 -23.25 L 2.601562 0 Z M 14.632812 0 "/></g></g></g><g fill="#008037" fill-opacity="1"><g transform="translate(567.765798, 259.093339)"><g/></g></g><g fill="#008037" fill-opacity="1"><g transform="translate(577.001317, 259.093339)"><g><path d="M 14.632812 0 L 14.632812 -4.648438 L 7.253906 -4.648438 L 7.253906 -9.300781 L 13.367188 -9.300781 L 13.367188 -13.949219 L 7.253906 -13.949219 L 7.253906 -18.601562 L 14.242188 -18.601562 L 14.242188 -23.25 L 2.601562 -23.25 L 2.601562 0 Z M 14.632812 0 "/></g></g></g><g fill="#008037" fill-opacity="1"><g transform="translate(593.391132, 259.093339)"><g><path d="M 1.527344 -1.496094 C 4.683594 0.128906 7.578125 0.292969 8.878906 0.195312 C 13.234375 -0.03125 15.902344 -2.992188 15.902344 -6.863281 C 15.902344 -10.570312 12.78125 -12.648438 9.171875 -13.984375 C 7.835938 -14.4375 6.699219 -15.023438 6.570312 -16.324219 C 6.472656 -17.625 7.21875 -18.828125 8.878906 -18.925781 C 9.59375 -18.960938 11.058594 -18.992188 13.625 -17.949219 L 14.210938 -22.4375 C 11.21875 -23.480469 9.625 -23.480469 8.421875 -23.414062 C 4.554688 -23.21875 1.855469 -20.226562 1.855469 -16.324219 C 1.855469 -12.421875 5.105469 -10.570312 8.746094 -9.234375 C 10.046875 -8.78125 11.058594 -8.195312 11.15625 -6.863281 C 11.285156 -5.59375 10.113281 -4.617188 8.746094 -4.519531 C 7.675781 -4.421875 4.78125 -4.488281 2.113281 -6.375 Z M 1.527344 -1.496094 "/></g></g></g><g fill="#008037" fill-opacity="1"><g transform="translate(610.593936, 259.093339)"><g><path d="M 1.527344 -1.496094 C 4.683594 0.128906 7.578125 0.292969 8.878906 0.195312 C 13.234375 -0.03125 15.902344 -2.992188 15.902344 -6.863281 C 15.902344 -10.570312 12.78125 -12.648438 9.171875 -13.984375 C 7.835938 -14.4375 6.699219 -15.023438 6.570312 -16.324219 C 6.472656 -17.625 7.21875 -18.828125 8.878906 -18.925781 C 9.59375 -18.960938 11.058594 -18.992188 13.625 -17.949219 L 14.210938 -22.4375 C 11.21875 -23.480469 9.625 -23.480469 8.421875 -23.414062 C 4.554688 -23.21875 1.855469 -20.226562 1.855469 -16.324219 C 1.855469 -12.421875 5.105469 -10.570312 8.746094 -9.234375 C 10.046875 -8.78125 11.058594 -8.195312 11.15625 -6.863281 C 11.285156 -5.59375 10.113281 -4.617188 8.746094 -4.519531 C 7.675781 -4.421875 4.78125 -4.488281 2.113281 -6.375 Z M 1.527344 -1.496094 "/></g></g></g><g fill="#008037" fill-opacity="1"><g transform="translate(627.79674, 259.093339)"><g><path d="M 0.519531 0 L 5.789062 0 L 6.699219 -2.503906 L 14.40625 -2.503906 L 15.347656 0 L 20.585938 0 L 10.796875 -24.097656 L 10.308594 -24.097656 Z M 8.390625 -6.863281 L 10.570312 -12.910156 L 12.683594 -6.863281 Z M 8.390625 -6.863281 "/></g></g></g><g fill="#008037" fill-opacity="1"><g transform="translate(649.025397, 259.093339)"><g/></g></g><g fill="#008037" fill-opacity="1"><g transform="translate(325.2715, 304.093337)"><g><path d="M 7.253906 0 L 7.253906 -8.878906 L 11.738281 -8.878906 C 20.746094 -8.878906 20.78125 -23.21875 11.738281 -23.21875 L 2.601562 -23.21875 L 2.601562 0 Z M 7.253906 -13.398438 L 7.253906 -18.601562 L 11.347656 -18.601562 C 14.472656 -18.601562 14.472656 -13.398438 11.347656 -13.398438 Z M 7.253906 -13.398438 "/></g></g></g><g fill="#008037" fill-opacity="1"><g transform="translate(344.880733, 304.093337)"><g><path d="M 15.675781 -29.464844 L 9.625 -29.464844 L 7.902344 -24.878906 L 12.390625 -24.878906 Z M 11.21875 -23.542969 L 9.886719 -23.542969 L 0.519531 0 L 5.789062 0 L 6.699219 -2.503906 L 14.40625 -2.503906 L 15.347656 0 L 20.585938 0 Z M 12.683594 -6.863281 L 8.390625 -6.863281 L 10.570312 -13.074219 Z M 12.683594 -6.863281 "/></g></g></g><g fill="#008037" fill-opacity="1"><g transform="translate(366.115943, 304.093337)"><g><path d="M 19.382812 -1.429688 L 19.382812 -11.640625 L 14.667969 -11.640625 L 14.667969 -4.648438 C 14.242188 -4.585938 13.789062 -4.519531 13.367188 -4.519531 C 4.390625 -4.519531 3.96875 -18.40625 13.367188 -18.730469 C 15.835938 -18.796875 17.332031 -18.277344 18.242188 -17.886719 L 18.796875 -22.601562 C 18.375 -22.730469 16.128906 -23.542969 13.367188 -23.445312 C -2.765625 -22.863281 -1.984375 0.128906 13.367188 0.128906 C 15.578125 0.128906 17.59375 -0.421875 19.382812 -1.429688 Z M 19.382812 -1.429688 "/></g></g></g><g fill="#008037" fill-opacity="1"><g transform="translate(388.001543, 304.093337)"><g><path d="M 7.253906 0 L 7.253906 -23.25 L 2.601562 -23.25 L 2.601562 0 Z M 7.253906 0 "/></g></g></g><g fill="#008037" fill-opacity="1"><g transform="translate(397.887464, 304.093337)"><g><path d="M 7.253906 -12.648438 L 19.023438 0.488281 L 20.261719 0.488281 L 20.261719 -23.21875 L 15.578125 -23.21875 L 15.578125 -10.082031 L 3.835938 -23.738281 L 2.601562 -23.738281 L 2.601562 0 L 7.253906 0 Z M 7.253906 -12.648438 "/></g></g></g><g fill="#008037" fill-opacity="1"><g transform="translate(420.781163, 304.093337)"><g><path d="M 0.519531 0 L 5.789062 0 L 6.699219 -2.503906 L 14.40625 -2.503906 L 15.347656 0 L 20.585938 0 L 10.796875 -24.097656 L 10.308594 -24.097656 Z M 8.390625 -6.863281 L 10.570312 -12.910156 L 12.683594 -6.863281 Z M 8.390625 -6.863281 "/></g></g></g><g fill="#008037" fill-opacity="1"><g transform="translate(442.016372, 304.093337)"><g/></g></g><g fill="#008037" fill-opacity="1"><g transform="translate(451.251903, 304.093337)"><g><path d="M 7.253906 -12.648438 L 19.023438 0.488281 L 20.261719 0.488281 L 20.261719 -23.21875 L 15.578125 -23.21875 L 15.578125 -10.082031 L 3.835938 -23.738281 L 2.601562 -23.738281 L 2.601562 0 L 7.253906 0 Z M 7.253906 -12.648438 "/></g></g></g><g fill="#008037" fill-opacity="1"><g transform="translate(474.145602, 304.093337)"><g><path d="M 4.976562 -26.210938 L 7.804688 -24.976562 C 8.878906 -27.21875 10.308594 -24.78125 12.359375 -24.714844 C 14.179688 -24.648438 15.511719 -25.984375 16.097656 -28.097656 L 13.300781 -29.367188 C 12.164062 -27.121094 10.765625 -29.5625 8.683594 -29.625 C 6.863281 -29.691406 5.59375 -28.292969 4.976562 -26.210938 Z M 11.21875 -23.542969 L 9.886719 -23.542969 L 0.519531 0 L 5.789062 0 L 6.699219 -2.503906 L 14.40625 -2.503906 L 15.347656 0 L 20.585938 0 Z M 12.683594 -6.863281 L 8.390625 -6.863281 L 10.570312 -13.074219 Z M 12.683594 -6.863281 "/></g></g></g><g fill="#008037" fill-opacity="1"><g transform="translate(495.380811, 304.093337)"><g><path d="M 13.789062 0.324219 C 29.789062 0.324219 29.789062 -23.640625 13.789062 -23.640625 C -2.210938 -23.640625 -2.210938 0.324219 13.789062 0.324219 Z M 13.789062 -4.488281 C 4.488281 -4.488281 4.488281 -18.863281 13.789062 -18.863281 C 23.089844 -18.863281 23.089844 -4.488281 13.789062 -4.488281 Z M 13.789062 -4.488281 "/></g></g></g><g fill="#008037" fill-opacity="1"><g transform="translate(522.924782, 304.093337)"><g/></g></g><g fill="#008037" fill-opacity="1"><g transform="translate(532.160301, 304.093337)"><g><path d="M 14.632812 0 L 14.632812 -4.648438 L 7.253906 -4.648438 L 7.253906 -9.300781 L 13.367188 -9.300781 L 13.367188 -13.949219 L 7.253906 -13.949219 L 7.253906 -18.601562 L 14.242188 -18.601562 L 14.242188 -23.25 L 2.601562 -23.25 L 2.601562 0 Z M 14.632812 0 "/></g></g></g><g fill="#008037" fill-opacity="1"><g transform="translate(548.550116, 304.093337)"><g><path d="M 0.195312 0 L 5.855469 0 L 10.339844 -7.96875 L 14.796875 0 L 20.292969 0 L 12.976562 -12.390625 L 19.316406 -23.285156 L 13.820312 -23.285156 L 10.339844 -16.8125 L 6.828125 -23.285156 L 1.203125 -23.285156 L 7.511719 -12.390625 Z M 0.195312 0 "/></g></g></g><g fill="#008037" fill-opacity="1"><g transform="translate(569.069899, 304.093337)"><g><path d="M 7.253906 0 L 7.253906 -23.25 L 2.601562 -23.25 L 2.601562 0 Z M 7.253906 0 "/></g></g></g><g fill="#008037" fill-opacity="1"><g transform="translate(578.955831, 304.093337)"><g><path d="M 1.527344 -1.496094 C 4.683594 0.128906 7.578125 0.292969 8.878906 0.195312 C 13.234375 -0.03125 15.902344 -2.992188 15.902344 -6.863281 C 15.902344 -10.570312 12.78125 -12.648438 9.171875 -13.984375 C 7.835938 -14.4375 6.699219 -15.023438 6.570312 -16.324219 C 6.472656 -17.625 7.21875 -18.828125 8.878906 -18.925781 C 9.59375 -18.960938 11.058594 -18.992188 13.625 -17.949219 L 14.210938 -22.4375 C 11.21875 -23.480469 9.625 -23.480469 8.421875 -23.414062 C 4.554688 -23.21875 1.855469 -20.226562 1.855469 -16.324219 C 1.855469 -12.421875 5.105469 -10.570312 8.746094 -9.234375 C 10.046875 -8.78125 11.058594 -8.195312 11.15625 -6.863281 C 11.285156 -5.59375 10.113281 -4.617188 8.746094 -4.519531 C 7.675781 -4.421875 4.78125 -4.488281 2.113281 -6.375 Z M 1.527344 -1.496094 "/></g></g></g><g fill="#008037" fill-opacity="1"><g transform="translate(596.158635, 304.093337)"><g><path d="M 11.089844 0 L 11.089844 -18.601562 L 16.878906 -18.601562 L 16.878906 -23.21875 L 0.652344 -23.21875 L 0.652344 -18.601562 L 6.4375 -18.601562 L 6.4375 0 Z M 11.089844 0 "/></g></g></g><g fill="#008037" fill-opacity="1"><g transform="translate(613.946781, 304.093337)"><g><path d="M 14.632812 0 L 14.632812 -4.648438 L 7.253906 -4.648438 L 7.253906 -9.300781 L 13.367188 -9.300781 L 13.367188 -13.949219 L 7.253906 -13.949219 L 7.253906 -18.601562 L 14.242188 -18.601562 L 14.242188 -23.25 L 2.601562 -23.25 L 2.601562 0 Z M 14.632812 0 "/></g></g></g></svg>